<?xml version="1.0" encoding="UTF-8" standalone="no"?>
<svg
   xmlns:dc="http://purl.org/dc/elements/1.1/"
   xmlns:cc="http://creativecommons.org/ns#"
   xmlns:rdf="http://www.w3.org/1999/02/22-rdf-syntax-ns#"
   xmlns:svg="http://www.w3.org/2000/svg"
   xmlns="http://www.w3.org/2000/svg"
   xmlns:sodipodi="http://sodipodi.sourceforge.net/DTD/sodipodi-0.dtd"
   xmlns:inkscape="http://www.inkscape.org/namespaces/inkscape"
   version="1.1"
   x="0px"
   y="0px"
   viewBox="0 0 100.164 100.805"
   enable-background="new 0 0 100 100"
   xml:space="preserve"
   id="svg2"
   inkscape:version="0.91 r13725"
   sodipodi:docname="cycle.svg"
   width="100.164"
   height="100.805"><metadata
     id="metadata14"><rdf:RDF><cc:Work
         rdf:about=""><dc:format>image/svg+xml</dc:format><dc:type
           rdf:resource="http://purl.org/dc/dcmitype/StillImage" /><dc:title></dc:title></cc:Work></rdf:RDF></metadata><defs
     id="defs12" /><sodipodi:namedview
     pagecolor="#ffffff"
     bordercolor="#666666"
     borderopacity="1"
     objecttolerance="10"
     gridtolerance="10"
     guidetolerance="10"
     inkscape:pageopacity="0"
     inkscape:pageshadow="2"
     inkscape:window-width="1680"
     inkscape:window-height="1022"
     id="namedview10"
     showgrid="false"
     fit-margin-top="5"
     fit-margin-left="6"
     fit-margin-right="6"
     fit-margin-bottom="5"
     inkscape:zoom="1.888"
     inkscape:cx="50.082"
     inkscape:cy="37.903999"
     inkscape:window-x="0"
     inkscape:window-y="0"
     inkscape:window-maximized="1"
     inkscape:current-layer="svg2" /><path
     d="m 39.851,12.573 -8.809,-1.717 0.945,2.75 C 16.722,20.162 6,35.333 6,52.971 c 0,5.741 1.156,11.212 3.215,16.22 -1.399,1.219 -2.29,3.008 -2.29,5.005 0,3.661 2.979,6.64 6.639,6.64 3.66,0 6.639,-2.979 6.639,-6.64 0,-3.661 -2.979,-6.64 -6.639,-6.64 -0.584,0 -1.148,0.083 -1.688,0.226 C 10.031,63.2 9,58.207 9,52.971 9,36.646 18.878,22.597 32.966,16.454 l 0.993,2.89 5.892,-6.771 z M 17.204,74.196 c 0,2.007 -1.632,3.64 -3.639,3.64 -2.007,0 -3.639,-1.633 -3.639,-3.64 0,-2.007 1.632,-3.64 3.639,-3.64 2.007,0 3.639,1.633 3.639,3.64 z M 91.193,59.164 c 0.299,-2.023 0.473,-4.087 0.473,-6.192 C 91.666,31.585 75.905,13.824 55.391,10.657 54.913,7.4610003 52.159,5 48.833,5 c -3.661,0 -6.639,2.9790003 -6.639,6.64 0,3.661 2.979,6.64 6.639,6.64 2.96,0 5.472,-1.948 6.326,-4.629 18.967,3.04 33.507,19.512 33.507,39.323 0,1.875 -0.149,3.713 -0.404,5.518 l -2.846,-0.654 2.632,8.581 6.116,-6.568 -2.971,-0.687 z M 48.833,15.278 c -2.007,0 -3.639,-1.633 -3.639,-3.64 0,-2.0069997 1.632,-3.6399997 3.639,-3.6399997 2.007,0 3.639,1.633 3.639,3.6399997 0,2.007 -1.632,3.64 -3.639,3.64 z m 35.27,52.278 c -3.661,0 -6.64,2.979 -6.64,6.64 0,1.729 0.67,3.302 1.758,4.484 -7.312,8.63 -18.217,14.124 -30.388,14.124 -8.825,0 -16.98,-2.896 -23.589,-7.772 l 1.963,-2.234 -8.801,-1.76 2.878,8.502 1.976,-2.249 c 7.142,5.338 15.99,8.514 25.573,8.514 13.196,0 25.001,-6.013 32.864,-15.427 0.747,0.292 1.557,0.458 2.405,0.458 3.66,0 6.639,-2.979 6.639,-6.64 0,-3.661 -2.978,-6.64 -6.638,-6.64 z m 0,10.28 c -2.007,0 -3.64,-1.633 -3.64,-3.64 0,-2.007 1.633,-3.64 3.64,-3.64 2.007,0 3.639,1.633 3.639,3.64 0,2.007 -1.633,3.64 -3.639,3.64 z"
     id="path4"
     inkscape:connector-curvature="0" /></svg>