<?xml version="1.0" encoding="UTF-8" standalone="no"?>
<svg
   xmlns:dc="http://purl.org/dc/elements/1.1/"
   xmlns:cc="http://creativecommons.org/ns#"
   xmlns:rdf="http://www.w3.org/1999/02/22-rdf-syntax-ns#"
   xmlns:svg="http://www.w3.org/2000/svg"
   xmlns="http://www.w3.org/2000/svg"
   xmlns:sodipodi="http://sodipodi.sourceforge.net/DTD/sodipodi-0.dtd"
   xmlns:inkscape="http://www.inkscape.org/namespaces/inkscape"
   version="1.1"
   x="0px"
   y="0px"
   viewBox="-17.999 -18 100 100"
   enable-background="new -17.999 -18 99.998 100"
   xml:space="preserve"
   id="svg2"
   inkscape:version="0.91 r13725"
   sodipodi:docname="dark sky.svg"
   width="100"
   height="100"><metadata
     id="metadata22"><rdf:RDF><cc:Work
         rdf:about=""><dc:format>image/svg+xml</dc:format><dc:type
           rdf:resource="http://purl.org/dc/dcmitype/StillImage" /><dc:title></dc:title></cc:Work></rdf:RDF></metadata><defs
     id="defs20" /><sodipodi:namedview
     pagecolor="#ffffff"
     bordercolor="#666666"
     borderopacity="1"
     objecttolerance="10"
     gridtolerance="10"
     guidetolerance="10"
     inkscape:pageopacity="0"
     inkscape:pageshadow="2"
     inkscape:window-width="1680"
     inkscape:window-height="1022"
     id="namedview18"
     showgrid="false"
     fit-margin-bottom="0"
     fit-margin-top="0"
     fit-margin-left="0"
     fit-margin-right="0"
     inkscape:zoom="6.376"
     inkscape:cx="50.312679"
     inkscape:cy="43.869978"
     inkscape:window-x="0"
     inkscape:window-y="0"
     inkscape:window-maximized="1"
     inkscape:current-layer="svg2" /><path
     d="m 27.288839,79.849833 c 6.836,-2.587 12.301,-7.213 16.037,-12.915 -13.895,4.746 -29.144,-2.562 -34.1019996,-16.421 -4.847,-13.56 1.9139996,-28.508 15.0829996,-33.96 -6.577,-1.815 -13.747,-1.678 -20.5909996,0.907 -17.1840004,6.494 -25.9010004,25.801 -19.4100004,42.979 6.4910004,17.181 25.8,25.906 42.983,19.41 z"
     id="path4"
     inkscape:connector-curvature="0"
     style="fill:#231f20" /><path
     d="m 61.089839,63.970833 0.003,0 0.156,0.371 0.158,0.372 c 0.659,1.545 0.464,3.966 -0.438,5.386 l -0.212,0.339 -1.853,2.919 3.041,-0.272 0.003,0 0.403,-0.035 0.401,-0.038 c 1.67,-0.147 3.912,0.791 4.982,2.08 l 0.259,0.312 0.261,0.311 1.945,2.353 0.771,-3.369 0.091,-0.394 c 0.376,-1.634 1.96,-3.479 3.518,-4.099 l 0.374,-0.151 0.373,-0.145 0.003,-0.004 2.836,-1.119 -2.618,-1.572 -0.346,-0.21 -0.35,-0.206 c -1.439,-0.862 -2.698,-2.937 -2.809,-4.615 l -0.011,-0.166 -0.038,-0.637 0,-0.003 -0.193,-3.047 -2.3,2.004 0,0.002 -0.483,0.421 -0.128,0.112 c -1.265,1.104 -3.628,1.664 -5.256,1.248 l -0.781,-0.197 -2.96,-0.756 1.198,2.805 z"
     id="path6"
     inkscape:connector-curvature="0"
     style="fill:#231f20" /><path
     d="m 66.000839,-6.6891673 0.365,0.173 0.365,0.174 c 1.516,0.722 2.97,2.668 3.237,4.326 l 0.062,0.397 0.547,3.413 2.098,-2.214 0.278,-0.293 0.274,-0.295 c 1.154,-1.218 3.455,-2.004 5.115,-1.743 l 0.397,0.065 0.399,0.061 0.004,0 3.013,0.475 -1.651,-3.036 -0.191,-0.355 c -0.803,-1.476 -0.835,-3.905 -0.076,-5.4039997 l 0.182,-0.361 0.186,-0.358 1.382,-2.72 -2.998,0.557 -0.004,0 -0.399,0.074 -0.395,0.074 c -1.649,0.306 -3.972,-0.413 -5.158,-1.6 l -0.123,-0.119 -0.448,-0.448 -0.003,-0.002 -2.161,-2.153 -0.394,3.022 0,0.003 -0.084,0.632 -0.024,0.168 c -0.218,1.665 -1.617,3.65 -3.111,4.4169997 l -0.722,0.364 0,0.002 -2.716,1.392 2.754,1.31 0,0.002 z"
     id="path8"
     inkscape:connector-curvature="0"
     style="fill:#231f20" /><path
     d="m 37.079839,27.927833 0.42,0.41 c 1.732,1.689 2.817,5.027 2.405,7.411 l -0.098,0.576 -0.843,4.91 3.898,-2.047 0.511,-0.271 0.519,-0.27 c 2.145,-1.13 5.651,-1.13 7.795,0 l 0.514,0.27 0.512,0.271 0.003,0 3.897,2.047 -0.843,-4.91 -0.098,-0.576 c -0.414,-2.384 0.671,-5.722 2.405,-7.411 l 0.418,-0.41 0.42,-0.403 3.153,-3.074 -4.356,-0.633 -0.004,0 -1.153,-0.166 c -2.395,-0.353 -5.229,-2.414 -6.303,-4.584 l -0.108,-0.217 -0.405,-0.824 0,-0.004 -1.949,-3.946 -1.95,3.946 0,0.004 -0.404,0.824 -0.108,0.217 c -1.071,2.17 -3.91,4.231 -6.305,4.584 l -0.579,0.083 -0.575,0.083 -4.358,0.633 3.15,3.074 0.419,0.403 z"
     id="path10"
     inkscape:connector-curvature="0"
     style="fill:#231f20" /><path
     d="m -8.9991606,-1.3231673 -1.8490004,2.919 3.0400004,-0.272 0.405,-0.035 0.4,-0.037 c 1.672,-0.148 3.914,0.79 4.985,2.08 l 0.256,0.311 0.258,0.311 0.003,0 1.94599997,2.352 0.77000003,-3.37 0.091,-0.394 c 0.373,-1.63299995 1.956,-3.48 3.515,-4.098 l 0.38,-0.152 0.373,-0.146 0,-10e-4 2.841,-1.123 -2.62,-1.568 -0.347,-0.21 -0.347,-0.205 c -1.441,-0.863 -2.701,-2.937 -2.811,-4.616 l -0.011,-0.166 -0.039,-0.6359997 0,-0.002 -0.197,-3.044 -2.29600003,2.003 -0.003,0.002 -0.482,0.419 -0.126,0.11 c -1.26299997,1.1039997 -3.62799997,1.6659997 -5.25499997,1.2489997 l -0.782,-0.199 -2.959,-0.7559997 1.198,2.8039997 0,0.002 0.159,0.37 0.159,0.373 c 0.658,1.544 0.459,3.967 -0.438,5.386 l -0.217,0.339 z"
     id="path12"
     inkscape:connector-curvature="0"
     style="fill:#231f20" /><rect
     style="fill:none"
     id="rect3412"
     width="101.31744"
     height="100.53325"
     x="-17.999001"
     y="-18.628517"
     ry="0.6273526" /></svg>