<?xml version="1.0" encoding="UTF-8" standalone="no"?>
<svg
   xmlns:dc="http://purl.org/dc/elements/1.1/"
   xmlns:cc="http://creativecommons.org/ns#"
   xmlns:rdf="http://www.w3.org/1999/02/22-rdf-syntax-ns#"
   xmlns:svg="http://www.w3.org/2000/svg"
   xmlns="http://www.w3.org/2000/svg"
   xmlns:sodipodi="http://sodipodi.sourceforge.net/DTD/sodipodi-0.dtd"
   xmlns:inkscape="http://www.inkscape.org/namespaces/inkscape"
   version="1.1"
   x="0px"
   y="0px"
   viewBox="0 0 100 100"
   enable-background="new 0 0 100 100"
   xml:space="preserve"
   id="svg2"
   inkscape:version="0.91 r13725"
   sodipodi:docname="energy.svg"
   width="100"
   height="100"><metadata
     id="metadata26"><rdf:RDF><cc:Work
         rdf:about=""><dc:format>image/svg+xml</dc:format><dc:type
           rdf:resource="http://purl.org/dc/dcmitype/StillImage" /><dc:title></dc:title></cc:Work></rdf:RDF></metadata><defs
     id="defs24" /><sodipodi:namedview
     pagecolor="#ffffff"
     bordercolor="#666666"
     borderopacity="1"
     objecttolerance="10"
     gridtolerance="10"
     guidetolerance="10"
     inkscape:pageopacity="0"
     inkscape:pageshadow="2"
     inkscape:window-width="1680"
     inkscape:window-height="1022"
     id="namedview22"
     showgrid="false"
     fit-margin-top="5"
     fit-margin-bottom="5"
     fit-margin-left="0"
     fit-margin-right="0"
     inkscape:zoom="5.3400704"
     inkscape:cx="45.599266"
     inkscape:cy="29.306879"
     inkscape:window-x="0"
     inkscape:window-y="0"
     inkscape:window-maximized="1"
     inkscape:current-layer="svg2" /><path
     d="m 5.816318,48.324953 18.520381,0.155584 -8.112233,22.71519 c -0.459183,1.400251 0,2.956087 1.224488,3.734003 0.459184,0.311168 1.071427,0.466751 1.683671,0.466751 0.765305,0 1.683671,-0.311167 2.295916,-0.9335 L 60.152973,33.07777 c 0.765305,-0.933501 1.071428,-2.178169 0.612244,-3.422837 -0.459184,-1.089084 -1.53061,-1.867002 -2.755097,-1.867002 L 39.336677,27.632347 48.214215,11.607248 c 0.459183,-0.933502 0.459183,-2.1781694 0,-3.1116704 -0.612244,-0.933501 -1.53061,-1.5558349 -2.602037,-1.5558349 l -20.510174,0 c -1.071427,0 -2.142853,0.6223339 -2.602037,1.5558349 L 3.2142811,43.657448 c -0.4591831,0.933501 -0.4591831,2.178169 0,3.11167 0.4591829,0.933501 1.5306099,1.400252 2.6020369,1.555835 z m 21.122417,-35.161871 13.316307,0 -8.877536,16.025101 c -0.459184,0.9335 -0.459184,2.178169 0,3.111669 0.612242,0.933502 1.53061,1.555836 2.602036,1.555836 l 16.683649,0 -23.724456,25.36011 4.591831,-12.757847 C 31.836688,45.52445 31.683627,44.435365 31.224444,43.657448 30.6122,42.879531 29.693835,42.257196 28.775469,42.257196 L 11.173452,42.101613 26.938735,13.163082 Z"
     id="path4"
     inkscape:connector-curvature="0"
     style="fill:#000000" /><path
     d="m 3.06122,75.240898 7.040806,0 c 1.683671,0 3.06122,-1.400251 3.06122,-3.11167 0,-1.711419 -1.377549,-3.11167 -3.06122,-3.11167 l -7.040806,0 C 1.3775491,69.017558 0,70.417809 0,72.129228 c 0,1.711419 1.3775491,3.11167 3.06122,3.11167 z"
     id="path6"
     inkscape:connector-curvature="0"
     style="fill:#000000" /><path
     d="m 40.101982,72.129228 c 0,-1.711419 -1.377549,-3.11167 -3.06122,-3.11167 l -7.959172,0 c -1.683671,0 -3.06122,1.400251 -3.06122,3.11167 0,1.711419 1.377549,3.11167 3.06122,3.11167 l 7.959172,0 c 1.683671,0 3.06122,-1.400251 3.06122,-3.11167 z"
     id="path8"
     inkscape:connector-curvature="0"
     style="fill:#000000" /><path
     d="m 22.499967,76.952317 c -1.37755,0.9335 -1.683671,2.956085 -0.765305,4.356338 l 3.214281,4.667504 c 0.612245,0.777917 1.53061,1.244668 2.448976,1.244668 0.612245,0 1.224487,-0.155584 1.836732,-0.622333 1.377549,-0.933502 1.683671,-2.956087 0.765305,-4.356339 L 26.785675,77.57465 c -1.071427,-1.244667 -2.908158,-1.555835 -4.285708,-0.622333 z"
     id="path10"
     inkscape:connector-curvature="0"
     style="fill:#000000" /><path
     d="m 12.09182,77.730234 -3.367343,5.134255 c -0.9183659,1.400252 -0.612244,3.422838 0.765305,4.356338 0.459183,0.311167 1.071428,0.622334 1.68367,0.622334 0.918368,0 1.989794,-0.466751 2.602039,-1.400251 l 3.367342,-5.134255 c 0.918366,-1.400253 0.612242,-3.422838 -0.765305,-4.356338 -1.530611,-0.933502 -3.367342,-0.622334 -4.285708,0.777917 z"
     id="path12"
     inkscape:connector-curvature="0"
     style="fill:#000000" /><path
     d="M 16.071404,62.327468 12.704062,57.504379 C 11.785697,56.104127 9.7959041,55.79296 8.418355,56.726462 7.0408061,57.659963 6.734684,59.682548 7.65305,61.082799 l 3.367342,4.823089 c 0.612244,0.777918 1.53061,1.244668 2.448976,1.244668 0.612244,0 1.224489,-0.155583 1.836731,-0.622334 1.37755,-0.777918 1.683671,-2.800503 0.765305,-4.200754 z"
     id="path14"
     inkscape:connector-curvature="0"
     style="fill:#000000" /><path
     d="m 76.224379,15.185668 c -0.918367,-0.777917 -2.295916,-0.777917 -3.367343,-0.155583 -1.071427,0.622333 -1.683671,1.867002 -1.530609,2.956086 1.377547,13.380181 -4.591831,19.447937 -11.632636,26.604778 -5.663258,5.601006 -11.479576,11.513178 -13.469368,21.470522 -1.37755,6.845674 -0.153063,13.224598 3.367342,18.358853 4.591829,6.534507 11.938757,9.646177 16.836709,10.268511 1.683671,0.311167 3.367342,0.311167 5.051013,0.311167 0,0 0,0 0,0 15.153039,0 25.867309,-9.490593 27.857101,-24.89336 C 104.23454,35.567106 77.448866,15.963585 76.224379,15.185668 Z M 93.52027,69.173142 c -1.683671,12.291096 -9.795902,19.603521 -21.887722,19.603521 -1.37755,0 -2.755097,-0.155584 -4.285708,-0.311168 C 63.673376,87.998745 58.16318,85.664992 54.642778,80.68632 52.04074,76.952317 51.275436,72.440394 52.346862,67.150556 54.030533,59.060214 58.928485,54.081542 64.132559,48.947287 70.101938,42.879531 76.836621,36.18944 77.754987,24.520678 84.795794,31.677519 96.42843,46.924701 93.52027,69.173142 Z"
     id="path16"
     inkscape:connector-curvature="0"
     style="fill:#000000" /></svg>